<svg width="206" height="144" viewBox="0 0 206 144" fill="none" xmlns="http://www.w3.org/2000/svg">
<path d="M25.4688 107.812V0H31.7188V143.75H25.4688L6.71875 35.9375V143.75H0.46875V0H6.71875L25.4688 107.812Z" fill="white"/>
<path d="M63.5547 137.5C65.2474 137.5 66.6797 136.914 67.8516 135.742C69.1536 134.57 69.8047 133.073 69.8047 131.25V12.5C69.8047 10.8073 69.1536 9.375 67.8516 8.20312C66.6797 6.90104 65.2474 6.25 63.5547 6.25C61.7318 6.25 60.2344 6.90104 59.0625 8.20312C57.8906 9.375 57.3047 10.8073 57.3047 12.5V131.25C57.3047 133.073 57.8906 134.57 59.0625 135.742C60.2344 136.914 61.7318 137.5 63.5547 137.5ZM63.5547 143.75C60.0391 143.75 57.0443 142.578 54.5703 140.234C52.2266 137.76 51.0547 134.766 51.0547 131.25V12.5C51.0547 9.11458 52.2266 6.1849 54.5703 3.71094C57.0443 1.23698 60.0391 0 63.5547 0C66.9401 0 69.8698 1.23698 72.3438 3.71094C74.8177 6.1849 76.0547 9.11458 76.0547 12.5V131.25C76.0547 134.766 74.8177 137.76 72.3438 140.234C69.8698 142.578 66.9401 143.75 63.5547 143.75Z" fill="white"/>
<path d="M131.328 0H137.578V143.75H131.328V25L115.703 87.5L100.078 25V143.75H93.8281V0H100.078L115.703 62.5L131.328 0Z" fill="white"/>
<path d="M156.133 143.75V0H162.383V143.75H156.133Z" fill="white"/>
<path d="M193.438 143.75C189.922 143.75 186.927 142.578 184.453 140.234C182.109 137.76 180.938 134.766 180.938 131.25V12.5C180.938 9.11458 182.109 6.1849 184.453 3.71094C186.927 1.23698 189.922 0 193.438 0C196.823 0 199.753 1.23698 202.227 3.71094C204.701 6.1849 205.938 9.11458 205.938 12.5V25H199.688V12.5C199.688 10.8073 199.036 9.375 197.734 8.20312C196.562 6.90104 195.13 6.25 193.438 6.25C191.615 6.25 190.117 6.90104 188.945 8.20312C187.773 9.375 187.188 10.8073 187.188 12.5V131.25C187.188 133.073 187.773 134.57 188.945 135.742C190.117 136.914 191.615 137.5 193.438 137.5C195.13 137.5 196.562 136.914 197.734 135.742C199.036 134.57 199.688 133.073 199.688 131.25V118.75H205.938V131.25C205.938 134.766 204.701 137.76 202.227 140.234C199.753 142.578 196.823 143.75 193.438 143.75Z" fill="white"/>
</svg>
